<?xml version="1.0" encoding="UTF-8"?>
<svg id="Layer_2" data-name="Layer 2" xmlns="http://www.w3.org/2000/svg" viewBox="0 0 256 256">
  <defs>
    <style>
      .cls-1 {
        fill: #e4e4e7;
      }
    </style>
  </defs>
  <g id="Layer_2-2" data-name="Layer 2">
    <path class="cls-1" d="M220.67,0H35.33C15.82,0,0,15.82,0,35.33v185.33c0,19.51,15.82,35.33,35.33,35.33h185.33c19.51,0,35.33-15.82,35.33-35.33V35.33c0-19.51-15.82-35.33-35.33-35.33ZM159.17,226.23c-4.99.99-6.76-2.15-6.76-4.84,0-3.33.12-14.19.12-27.69,0-9.4-3.15-15.55-6.68-18.68,21.92-2.5,44.95-11.03,44.95-49.79,0-11.02-3.82-20.01-10.14-27.08,1.02-2.55,4.4-12.81-.96-26.71,0,0-8.25-2.71-27.04,10.35-7.86-2.23-16.29-3.36-24.65-3.4-8.37.04-16.78,1.16-24.63,3.4-18.81-13.05-27.07-10.35-27.07-10.35-5.34,13.9-1.97,24.16-.95,26.71-6.29,7.07-10.14,16.06-10.14,27.08,0,38.66,22.98,47.32,44.84,49.87-2.81,2.52-5.36,6.97-6.25,13.49-5.61,2.58-19.86,7.04-28.64-8.38,0,0-5.21-9.7-15.09-10.4,0,0-9.6-.13-.67,6.13,0,0,6.45,3.1,10.92,14.76,0,0,5.78,18.01,33.16,11.91.05,8.43.14,16.39.14,18.78,0,2.67-1.81,5.79-6.72,4.85-39.11-13.34-67.31-51.16-67.31-95.75,0-55.73,44.07-100.91,98.42-100.91s98.42,45.17,98.42,100.91c0,44.58-28.17,82.39-67.25,95.74Z"/>
  </g>
</svg>