<?xml version="1.0" encoding="UTF-8"?>
<svg id="Layer_2" data-name="Layer 2" xmlns="http://www.w3.org/2000/svg" viewBox="0 0 256 256">
  <defs>
    <style>
      .cls-1 {
        fill: #e4e4e7;
      }
    </style>
  </defs>
  <g id="Layer_2-2" data-name="Layer 2">
    <g id="Layer_1-2" data-name="Layer 1-2">
      <path class="cls-1" d="M221,0H35C15.67,0,0,15.67,0,35v186c0,19.33,15.67,35,35,35h186c19.33,0,35-15.67,35-35V35c0-19.33-15.67-35-35-35ZM77.18,213.36h-39.94v-122.22h39.94v122.22ZM57.22,74.06c-11.03,0-19.97-8.95-19.97-19.97s8.95-19.97,19.97-19.97,19.97,8.94,19.97,19.97-8.95,19.97-19.97,19.97ZM218.74,213.36h-38.4v-59.27c0-13.55-.28-30.99-19.97-30.99s-23.06,14.75-23.06,30.01v60.26h-38.36v-122.22h36.82v18.87h.54c5.13-9.2,17.67-18.87,36.37-18.87,38.88,0,46.07,24.2,46.07,55.67v66.55h0Z"/>
    </g>
  </g>
</svg>